<svg xmlns="http://www.w3.org/2000/svg" width="3200" height="2100" viewBox="0 0 3200 2100">
<defs>
<marker id="loop-arrow-green" markerWidth="52" markerHeight="52" refX="45" refY="26" orient="auto" markerUnits="userSpaceOnUse"><path d="M 2,2 L 48,26 L 2,50 Z" fill="#18805c"/></marker>
<marker id="loop-arrow-blue" markerWidth="52" markerHeight="52" refX="45" refY="26" orient="auto" markerUnits="userSpaceOnUse"><path d="M 2,2 L 48,26 L 2,50 Z" fill="#2459ba"/></marker>
<marker id="loop-arrow-orange" markerWidth="52" markerHeight="52" refX="45" refY="26" orient="auto" markerUnits="userSpaceOnUse"><path d="M 2,2 L 48,26 L 2,50 Z" fill="#b85c12"/></marker>
</defs>
<rect width="3200" height="2100" fill="white"/>
<g xmlns="http://www.w3.org/2000/svg" id="figure-header" font-family="Arial, Helvetica, sans-serif"><rect width="3200" height="240" fill="#10294e" /><text x="175" y="64" font-size="42" font-weight="800" fill="white" text-anchor="start">KAGGRICULTURE</text><text x="3045" y="64" font-size="32" font-weight="600" fill="#91e0d0" text-anchor="end">BC, SELF-PLAY PPO &amp; HEURISTICS</text><text x="175" y="147" font-size="58" font-weight="700" fill="white" text-anchor="start">01 · TRAINING LOOP</text><text x="175" y="206" font-size="32" font-weight="400" fill="#dce6f4" text-anchor="start">Public replays, self-play and targeted heuristic demonstrations</text></g>
<g id="figure-body" font-family="Arial, Helvetica, sans-serif">
<g transform="translate(330,385)" fill="white" stroke="#10294e" stroke-width="8"><path d="M-65,-35 V55 C-65,90 65,90 65,55 V-35"/><ellipse cx="0" cy="-35" rx="65" ry="25"/><path d="M-65,7 C-65,42 65,42 65,7 M-65,42 C-65,77 65,77 65,42" fill="none"/></g>
<text x="445" y="407" font-size="50" font-weight="700" fill="#10294e" text-anchor="start">Public replays</text>
<path d="M330,495 V595" fill="none" stroke="#18805c" stroke-width="24" stroke-linecap="round" stroke-linejoin="round" marker-end="url(#loop-arrow-green)"/>
<path d="M1295,775 H1925" fill="none" stroke="#2459ba" stroke-width="24" stroke-linecap="round" stroke-linejoin="round" marker-end="url(#loop-arrow-blue)"/>
<path d="M2490,950 C2490,1160 2380,1350 2170,1455" fill="none" stroke="#b85c12" stroke-width="24" stroke-linecap="round" stroke-linejoin="round" marker-end="url(#loop-arrow-orange)"/>
<path d="M1050,1530 C805,1415 735,1185 735,955" fill="none" stroke="#18805c" stroke-width="24" stroke-linecap="round" stroke-linejoin="round" marker-end="url(#loop-arrow-green)"/>
<rect x="175" y="600" width="1120" height="350" rx="28" fill="#eff9f3" stroke="#18805c" stroke-width="5"/>
<g transform="translate(330,775)" stroke="#18805c" stroke-width="9" stroke-linecap="round" stroke-linejoin="round" fill="white"><path d="M-65,-85 H25 L65,-45 V85 H-65 Z"/><path d="M25,-85 V-45 H65 M-32,-15 H30 M-32,20 H30 M-32,55 H12" fill="none"/></g>
<text x="465" y="756" font-size="61" font-weight="700" fill="#18805c" text-anchor="start">Behavior cloning (BC)</text>
<text x="465" y="829" font-size="44" font-weight="400" fill="#142a44" text-anchor="start">Learn from demonstrations</text>
<rect x="1930" y="600" width="1120" height="350" rx="28" fill="#f1f6ff" stroke="#2459ba" stroke-width="5"/>
<g transform="translate(2110,775)" fill="white" stroke="#2459ba" stroke-width="8">
<path d="M-92,0 L0,-72" fill="none"/>
<path d="M-92,0 L0,0" fill="none"/>
<path d="M-92,0 L0,72" fill="none"/>
<path d="M0,-72 L0,0" fill="none"/>
<path d="M0,0 L0,72" fill="none"/>
<path d="M0,-72 L92,0" fill="none"/>
<path d="M0,0 L92,0" fill="none"/>
<path d="M0,72 L92,0" fill="none"/>
<circle cx="-92" cy="0" r="21"/>
<circle cx="0" cy="-72" r="21"/>
<circle cx="0" cy="0" r="21"/>
<circle cx="0" cy="72" r="21"/>
<circle cx="92" cy="0" r="21"/>
</g>
<text x="2265" y="756" font-size="65" font-weight="700" fill="#2459ba" text-anchor="start">Self-play PPO</text>
<text x="2265" y="829" font-size="43" font-weight="400" fill="#142a44" text-anchor="start">Improve the neural policy</text>
<rect x="1050" y="1390" width="1120" height="350" rx="28" fill="#fff6e9" stroke="#b85c12" stroke-width="5"/>
<g transform="translate(1215,1565)" stroke="#b85c12" stroke-width="9" stroke-linecap="round" stroke-linejoin="round" fill="white"><path d="M-20,-90 H20 L28,-68 L48,-58 L72,-62 L92,-28 L77,-10 V12 L92,30 L72,63 L48,58 L28,69 L20,91 H-20 L-28,69 L-48,58 L-72,63 L-92,30 L-77,12 V-10 L-92,-28 L-72,-62 L-48,-58 L-28,-68 Z"/><circle cx="0" cy="0" r="34"/></g>
<text x="1360" y="1518" font-size="60" font-weight="700" fill="#b85c12" text-anchor="start">Heuristic refinement</text>
<text x="1360" y="1591" font-size="44" font-weight="400" fill="#142a44" text-anchor="start">Improve the planner for</text>
<text x="1360" y="1649" font-size="44" font-weight="400" fill="#142a44" text-anchor="start">observed weaknesses</text>
<text x="1600" y="1180" font-size="61" font-weight="700" fill="#10294e" text-anchor="middle">REPEAT</text>
<text x="175" y="1195" font-size="44" font-weight="700" fill="#18805c" text-anchor="start">Generate targeted data</text>
<text x="175" y="1257" font-size="42" font-weight="400" fill="#142a44" text-anchor="start">Heuristic self-play</text>
<text x="2520" y="1195" font-size="44" font-weight="700" fill="#b85c12" text-anchor="start">Observe weaknesses</text>
<g transform="translate(2550,1290)" stroke="#10294e" stroke-width="5" stroke-linecap="round" stroke-linejoin="round"><path d="M0,-20 C-53,-49 -58,37 0,53 C58,37 53,-49 0,-20 Z" fill="#e56c45"/><path d="M0,-18 L-20,-32 L-6,-32 L-3,-51 L8,-35 L26,-39 L12,-24 L21,-12 L3,-18 L-10,-6 Z" fill="#18805c"/></g>
<text x="2635" y="1306" font-size="36" font-weight="400" fill="#142a44" text-anchor="start">Tomato-heavy shops</text>
<g transform="translate(2510,1383)" fill="white" stroke="#10294e" stroke-width="5" stroke-linecap="round" stroke-linejoin="round"><path d="M0,9 L10,-18 H70 L80,9 Z M5,15 V70 H75 V15 M26,70 V35 H51 V70"/><path d="M0,9 V17 Q10,30 20,17 V9 M20,9 V17 Q30,30 40,17 V9 M40,9 V17 Q50,30 60,17 V9 M60,9 V17 Q70,30 80,17 V9"/></g>
<text x="2635" y="1426" font-size="36" font-weight="400" fill="#142a44" text-anchor="start">Skewed shop mixes</text>
<rect x="175" y="1860" width="2870" height="125" rx="18" fill="#f7f9fc"/>
<text x="1610" y="1939" font-size="43" font-weight="500" fill="#10294e" text-anchor="middle">Use the trained policy’s weaknesses to guide the next round of demonstrations.</text>
<text x="3045" y="2060" font-size="25" font-weight="500" fill="#52627b" text-anchor="end">01 / 03</text>
</g></svg>
